<svg width="600" height="400" xmlns="http://www.w3.org/2000/svg">
  <!-- Background -->
  <rect width="600" height="400" fill="#1e1e1e"/>

  <!-- Header -->
  <rect x="0" y="0" width="600" height="50" fill="#2d2d2d"/>
  <text x="20" y="32" font-family="system-ui, sans-serif" font-size="16" font-weight="600" fill="#e0e0e0">Concept Map Result</text>

  <!-- Content area -->
  <rect x="10" y="60" width="580" height="330" rx="8" fill="#252525"/>

  <!-- Title -->
  <text x="30" y="95" font-family="system-ui, sans-serif" font-size="14" font-weight="500" fill="#e0e0e0">Generated Concept Map: Project Notes</text>

  <!-- Concept nodes -->
  <ellipse cx="300" cy="160" rx="70" ry="30" fill="#7F52FF" opacity="0.8"/>
  <text x="300" y="165" font-family="system-ui, sans-serif" font-size="12" fill="white" text-anchor="middle">Main Project</text>

  <ellipse cx="150" cy="250" rx="60" ry="25" fill="#E95D3C" opacity="0.8"/>
  <text x="150" y="255" font-family="system-ui, sans-serif" font-size="11" fill="white" text-anchor="middle">Research</text>

  <ellipse cx="300" cy="280" rx="55" ry="25" fill="#E95D3C" opacity="0.8"/>
  <text x="300" y="285" font-family="system-ui, sans-serif" font-size="11" fill="white" text-anchor="middle">Design</text>

  <ellipse cx="450" cy="250" rx="65" ry="25" fill="#E95D3C" opacity="0.8"/>
  <text x="450" y="255" font-family="system-ui, sans-serif" font-size="11" fill="white" text-anchor="middle">Implementation</text>

  <ellipse cx="150" cy="340" rx="50" ry="22" fill="#4ade80" opacity="0.7"/>
  <text x="150" y="345" font-family="system-ui, sans-serif" font-size="10" fill="white" text-anchor="middle">Data</text>

  <ellipse cx="450" cy="340" rx="50" ry="22" fill="#4ade80" opacity="0.7"/>
  <text x="450" y="345" font-family="system-ui, sans-serif" font-size="10" fill="white" text-anchor="middle">Testing</text>

  <!-- Connecting lines -->
  <line x1="260" y1="180" x2="180" y2="230" stroke="#666" stroke-width="2"/>
  <line x1="300" y1="190" x2="300" y2="255" stroke="#666" stroke-width="2"/>
  <line x1="340" y1="180" x2="420" y2="230" stroke="#666" stroke-width="2"/>
  <line x1="150" y1="275" x2="150" y2="318" stroke="#666" stroke-width="2"/>
  <line x1="450" y1="275" x2="450" y2="318" stroke="#666" stroke-width="2"/>

  <!-- Placeholder Label -->
  <rect x="200" y="5" width="200" height="20" rx="4" fill="#E95D3C" opacity="0.9"/>
  <text x="220" y="18" font-family="system-ui, sans-serif" font-size="10" font-weight="600" fill="white">PLACEHOLDER - Replace with screenshot</text>
</svg>
